{
    "asset" : {
        "generator" : "Khronos glTF Blender I/O v3.2.43",
        "version" : "2.0"
    },
    "scene" : 0,
    "scenes" : [
        {
            "name" : "Scene",
            "nodes" : [
                0
            ]
        }
    ],
    "nodes" : [
        {
            "mesh" : 0,
            "name" : "Retopo_model to retopo_Material_0",
            "rotation" : [
                -0.46496787667274475,
                -0.5327334403991699,
                -0.5327334403991699,
                0.46496787667274475
            ]
        }
    ],
    "materials" : [
        {
            "doubleSided" : true,
            "name" : "Material.001",
            "normalTexture" : {
                "index" : 0
            },
            "occlusionTexture" : {
                "index" : 1
            },
            "pbrMetallicRoughness" : {
                "baseColorTexture" : {
                    "index" : 2
                },
                "metallicRoughnessTexture" : {
                    "index" : 1
                }
            }
        }
    ],
    "meshes" : [
        {
            "name" : "Retopo_model to retopo_Material_0",
            "primitives" : [
                {
                    "attributes" : {
                        "POSITION" : 0,
                        "NORMAL" : 1,
                        "TEXCOORD_0" : 2,
                        "TEXCOORD_1" : 3,
                        "TEXCOORD_2" : 4
                    },
                    "indices" : 5,
                    "material" : 0
                }
            ]
        }
    ],
    "textures" : [
        {
            "sampler" : 0,
            "source" : 0
        },
        {
            "sampler" : 0,
            "source" : 1
        },
        {
            "sampler" : 0,
            "source" : 2
        }
    ],
    "images" : [
        {
            "mimeType" : "image/png",
            "name" : "Material_normal",
            "uri" : "Material_normal.png"
        },
        {
            "mimeType" : "image/png",
            "name" : "Material_metallicRoughness",
            "uri" : "Material_metallicRoughness.png"
        },
        {
            "mimeType" : "image/jpeg",
            "name" : "Material_baseColor",
            "uri" : "Material_baseColor.jpg"
        }
    ],
    "accessors" : [
        {
            "bufferView" : 0,
            "componentType" : 5126,
            "count" : 1597,
            "max" : [
                0.6219988465309143,
                0.6290583610534668,
                1.1610064506530762
            ],
            "min" : [
                -0.6388825178146362,
                -0.6275841593742371,
                -0.31122255325317383
            ],
            "type" : "VEC3"
        },
        {
            "bufferView" : 1,
            "componentType" : 5126,
            "count" : 1597,
            "type" : "VEC3"
        },
        {
            "bufferView" : 2,
            "componentType" : 5126,
            "count" : 1597,
            "type" : "VEC2"
        },
        {
            "bufferView" : 3,
            "componentType" : 5126,
            "count" : 1597,
            "type" : "VEC2"
        },
        {
            "bufferView" : 4,
            "componentType" : 5126,
            "count" : 1597,
            "type" : "VEC2"
        },
        {
            "bufferView" : 5,
            "componentType" : 5123,
            "count" : 7434,
            "type" : "SCALAR"
        }
    ],
    "bufferViews" : [
        {
            "buffer" : 0,
            "byteLength" : 19164,
            "byteOffset" : 0
        },
        {
            "buffer" : 0,
            "byteLength" : 19164,
            "byteOffset" : 19164
        },
        {
            "buffer" : 0,
            "byteLength" : 12776,
            "byteOffset" : 38328
        },
        {
            "buffer" : 0,
            "byteLength" : 12776,
            "byteOffset" : 51104
        },
        {
            "buffer" : 0,
            "byteLength" : 12776,
            "byteOffset" : 63880
        },
        {
            "buffer" : 0,
            "byteLength" : 14868,
            "byteOffset" : 76656
        }
    ],
    "samplers" : [
        {
            "magFilter" : 9729,
            "minFilter" : 9987
        }
    ],
    "buffers" : [
        {
            "byteLength" : 91524,
            "uri" : "tire.bin"
        }
    ]
}
