{
    "asset" : {
        "generator" : "Khronos glTF Blender I/O v3.2.43",
        "version" : "2.0"
    },
    "scene" : 0,
    "scenes" : [
        {
            "name" : "Scene",
            "nodes" : [
                0,
                1
            ]
        }
    ],
    "nodes" : [
        {
            "mesh" : 0,
            "name" : "d_low_lambert1_0",
            "rotation" : [
                -0.049834683537483215,
                0.1469677984714508,
                0.05271996930241585,
                0.9864773750305176
            ],
            "scale" : [
                0.009999998845160007,
                0.010000000707805157,
                0.010000000707805157
            ]
        },
        {
            "mesh" : 1,
            "name" : "defaultMaterial",
            "rotation" : [
                0,
                0.7071068286895752,
                0,
                0.7071067094802856
            ],
            "translation" : [
                0,
                0.5958103537559509,
                0
            ]
        }
    ],
    "materials" : [
        {
            "doubleSided" : true,
            "name" : "lambert1",
            "normalTexture" : {
                "index" : 0
            },
            "occlusionTexture" : {
                "index" : 1
            },
            "pbrMetallicRoughness" : {
                "baseColorTexture" : {
                    "index" : 2
                },
                "metallicRoughnessTexture" : {
                    "index" : 1
                }
            }
        },
        {
            "doubleSided" : true,
            "name" : "DefaultMaterial",
            "normalTexture" : {
                "index" : 3
            },
            "pbrMetallicRoughness" : {
                "baseColorTexture" : {
                    "index" : 4
                },
                "metallicRoughnessTexture" : {
                    "index" : 5
                }
            }
        }
    ],
    "meshes" : [
        {
            "name" : "d_low_lambert1_0",
            "primitives" : [
                {
                    "attributes" : {
                        "POSITION" : 0,
                        "NORMAL" : 1,
                        "TEXCOORD_0" : 2
                    },
                    "indices" : 3,
                    "material" : 0
                }
            ]
        },
        {
            "name" : "defaultMaterial",
            "primitives" : [
                {
                    "attributes" : {
                        "POSITION" : 4,
                        "NORMAL" : 5,
                        "TEXCOORD_0" : 6
                    },
                    "indices" : 7,
                    "material" : 1
                }
            ]
        }
    ],
    "textures" : [
        {
            "sampler" : 0,
            "source" : 0
        },
        {
            "sampler" : 0,
            "source" : 1
        },
        {
            "sampler" : 0,
            "source" : 2
        },
        {
            "sampler" : 0,
            "source" : 3
        },
        {
            "sampler" : 0,
            "source" : 4
        },
        {
            "sampler" : 0,
            "source" : 5
        }
    ],
    "images" : [
        {
            "mimeType" : "image/png",
            "name" : "lambert1_normal",
            "uri" : "lambert1_normal.png"
        },
        {
            "mimeType" : "image/png",
            "name" : "lambert1_metallicRoughness",
            "uri" : "lambert1_metallicRoughness.png"
        },
        {
            "mimeType" : "image/png",
            "name" : "lambert1_baseColor",
            "uri" : "lambert1_baseColor.png"
        },
        {
            "mimeType" : "image/png",
            "name" : "DefaultMaterial_normal",
            "uri" : "DefaultMaterial_normal.png"
        },
        {
            "mimeType" : "image/png",
            "name" : "DefaultMaterial_baseColor",
            "uri" : "DefaultMaterial_baseColor.png"
        },
        {
            "mimeType" : "image/png",
            "name" : "DefaultMaterial_metallicRoughness",
            "uri" : "DefaultMaterial_metallicRoughness.png"
        }
    ],
    "accessors" : [
        {
            "bufferView" : 0,
            "componentType" : 5126,
            "count" : 8620,
            "max" : [
                96.2666015625,
                35.10823059082031,
                46.19717025756836
            ],
            "min" : [
                -139.76162719726562,
                -31.969240188598633,
                -32.217586517333984
            ],
            "type" : "VEC3"
        },
        {
            "bufferView" : 1,
            "componentType" : 5126,
            "count" : 8620,
            "type" : "VEC3"
        },
        {
            "bufferView" : 2,
            "componentType" : 5126,
            "count" : 8620,
            "type" : "VEC2"
        },
        {
            "bufferView" : 3,
            "componentType" : 5123,
            "count" : 25458,
            "type" : "SCALAR"
        },
        {
            "bufferView" : 4,
            "componentType" : 5126,
            "count" : 286,
            "max" : [
                0.07177469879388809,
                0.2513469159603119,
                1.0000001192092896
            ],
            "min" : [
                -0.07177469879388809,
                -0.251347154378891,
                -1.0000001192092896
            ],
            "type" : "VEC3"
        },
        {
            "bufferView" : 5,
            "componentType" : 5126,
            "count" : 286,
            "type" : "VEC3"
        },
        {
            "bufferView" : 6,
            "componentType" : 5126,
            "count" : 286,
            "type" : "VEC2"
        },
        {
            "bufferView" : 7,
            "componentType" : 5123,
            "count" : 942,
            "type" : "SCALAR"
        }
    ],
    "bufferViews" : [
        {
            "buffer" : 0,
            "byteLength" : 103440,
            "byteOffset" : 0
        },
        {
            "buffer" : 0,
            "byteLength" : 103440,
            "byteOffset" : 103440
        },
        {
            "buffer" : 0,
            "byteLength" : 68960,
            "byteOffset" : 206880
        },
        {
            "buffer" : 0,
            "byteLength" : 50916,
            "byteOffset" : 275840
        },
        {
            "buffer" : 0,
            "byteLength" : 3432,
            "byteOffset" : 326756
        },
        {
            "buffer" : 0,
            "byteLength" : 3432,
            "byteOffset" : 330188
        },
        {
            "buffer" : 0,
            "byteLength" : 2288,
            "byteOffset" : 333620
        },
        {
            "buffer" : 0,
            "byteLength" : 1884,
            "byteOffset" : 335908
        }
    ],
    "samplers" : [
        {
            "magFilter" : 9729,
            "minFilter" : 9987
        }
    ],
    "buffers" : [
        {
            "byteLength" : 337792,
            "uri" : "yolo.bin"
        }
    ]
}
