{
    "asset" : {
        "generator" : "Khronos glTF Blender I/O v3.2.43",
        "version" : "2.0"
    },
    "scene" : 0,
    "scenes" : [
        {
            "name" : "Scene",
            "nodes" : [
                0
            ]
        }
    ],
    "nodes" : [
        {
            "mesh" : 0,
            "name" : "Object_6"
        }
    ],
    "materials" : [
        {
            "doubleSided" : true,
            "name" : "13_-_Default",
            "normalTexture" : {
                "index" : 0
            },
            "occlusionTexture" : {
                "index" : 1
            },
            "pbrMetallicRoughness" : {
                "baseColorTexture" : {
                    "index" : 2
                },
                "metallicRoughnessTexture" : {
                    "index" : 1
                }
            }
        }
    ],
    "meshes" : [
        {
            "name" : "Object_0",
            "primitives" : [
                {
                    "attributes" : {
                        "POSITION" : 0,
                        "NORMAL" : 1,
                        "TEXCOORD_0" : 2,
                        "TEXCOORD_1" : 3
                    },
                    "indices" : 4,
                    "material" : 0
                }
            ]
        }
    ],
    "textures" : [
        {
            "sampler" : 0,
            "source" : 0
        },
        {
            "sampler" : 0,
            "source" : 1
        },
        {
            "sampler" : 0,
            "source" : 2
        }
    ],
    "images" : [
        {
            "mimeType" : "image/png",
            "name" : "13_-_Default_normal",
            "uri" : "13_-_Default_normal.png"
        },
        {
            "mimeType" : "image/png",
            "name" : "13_-_Default_metallicRoughness",
            "uri" : "13_-_Default_metallicRoughness.png"
        },
        {
            "mimeType" : "image/png",
            "name" : "13_-_Default_baseColor",
            "uri" : "13_-_Default_baseColor.png"
        }
    ],
    "accessors" : [
        {
            "bufferView" : 0,
            "componentType" : 5126,
            "count" : 1921,
            "max" : [
                89.25066375732422,
                84.39324951171875,
                78.22732543945312
            ],
            "min" : [
                -89.27898406982422,
                0.37270820140838623,
                -95.28107452392578
            ],
            "type" : "VEC3"
        },
        {
            "bufferView" : 1,
            "componentType" : 5126,
            "count" : 1921,
            "type" : "VEC3"
        },
        {
            "bufferView" : 2,
            "componentType" : 5126,
            "count" : 1921,
            "type" : "VEC2"
        },
        {
            "bufferView" : 3,
            "componentType" : 5126,
            "count" : 1921,
            "type" : "VEC2"
        },
        {
            "bufferView" : 4,
            "componentType" : 5123,
            "count" : 5820,
            "type" : "SCALAR"
        }
    ],
    "bufferViews" : [
        {
            "buffer" : 0,
            "byteLength" : 23052,
            "byteOffset" : 0
        },
        {
            "buffer" : 0,
            "byteLength" : 23052,
            "byteOffset" : 23052
        },
        {
            "buffer" : 0,
            "byteLength" : 15368,
            "byteOffset" : 46104
        },
        {
            "buffer" : 0,
            "byteLength" : 15368,
            "byteOffset" : 61472
        },
        {
            "buffer" : 0,
            "byteLength" : 11640,
            "byteOffset" : 76840
        }
    ],
    "samplers" : [
        {
            "magFilter" : 9729,
            "minFilter" : 9987
        }
    ],
    "buffers" : [
        {
            "byteLength" : 88480,
            "uri" : "case.bin"
        }
    ]
}
